<svg xmlns="http://www.w3.org/2000/svg" width="32.906" height="32.906" viewBox="0 0 32.906 32.906">
  <g id="Group_222" data-name="Group 222" transform="translate(-310 -5678.245)">
    <circle id="Ellipse_14" data-name="Ellipse 14" cx="16.453" cy="16.453" r="16.453" transform="translate(310 5678.245)" fill="#54a8c7"/>
    <path id="Icon_awesome-phone-alt" data-name="Icon awesome-phone-alt" d="M12.426,9.039l-2.8-1.2a.6.6,0,0,0-.7.172L7.689,9.526A9.26,9.26,0,0,1,3.263,5.1L4.777,3.86a.6.6,0,0,0,.172-.7L3.75.363A.6.6,0,0,0,3.063.016l-2.6.6A.6.6,0,0,0,0,1.2,11.59,11.59,0,0,0,11.592,12.791a.6.6,0,0,0,.585-.465l.6-2.6A.607.607,0,0,0,12.426,9.039Z" transform="translate(319.968 5688.212)" fill="#fff"/>
  </g>
</svg>
